<?xml version="1.0" standalone="no"?>
<!DOCTYPE svg PUBLIC "-//W3C//DTD SVG 20010904//EN"
 "http://www.w3.org/TR/2001/REC-SVG-20010904/DTD/svg10.dtd">
<svg version="1.0" xmlns="http://www.w3.org/2000/svg"
 width="700.000000pt" height="700.000000pt" viewBox="0 0 700.000000 700.000000"
 preserveAspectRatio="xMidYMid meet">
<metadata>
Created by potrace 1.11, written by Peter Selinger 2001-2013
</metadata>
<g transform="translate(0.000000,700.000000) scale(0.100000,-0.100000)"
fill="#000000" stroke="none">
<path d="M0 3500 l0 -3500 1028 0 1027 0 4 598 c2 328 4 824 6 1101 1 319 6
506 12 510 6 3 34 27 64 53 30 26 155 135 279 242 l225 195 28 -32 c15 -18 45
-57 66 -87 21 -30 143 -201 271 -380 128 -179 276 -386 329 -460 52 -74 99
-139 104 -145 5 -5 132 -183 283 -395 151 -212 283 -395 292 -407 9 -13 141
-196 292 -408 l275 -385 1207 0 1208 0 -48 62 c-26 35 -51 68 -57 74 -15 17
-22 26 -414 532 -198 254 -370 477 -384 495 -14 17 -54 69 -89 114 -131 169
-254 326 -268 344 -8 11 -30 38 -48 61 -39 52 -616 795 -743 958 -49 63 -213
275 -364 470 -151 195 -286 369 -299 385 -29 35 -229 293 -270 348 l-29 37 76
78 c41 42 90 93 107 112 18 19 108 114 200 210 92 96 189 198 215 225 26 28
124 130 219 229 94 98 186 195 205 215 19 20 107 113 196 206 90 94 177 186
195 205 27 29 267 280 430 450 79 82 374 391 409 429 31 33 251 264 477 500
51 53 126 132 168 176 l75 80 -1182 3 -1182 3 -95 -100 c-52 -54 -142 -150
-200 -212 -58 -62 -121 -129 -140 -149 -19 -20 -89 -94 -155 -165 -66 -71
-136 -145 -155 -165 -19 -20 -62 -66 -94 -101 -33 -35 -94 -100 -135 -144 -42
-45 -139 -148 -216 -230 -159 -169 -276 -294 -320 -340 -16 -18 -59 -63 -95
-102 -36 -38 -124 -132 -196 -209 -72 -76 -146 -155 -165 -175 -104 -111 -279
-298 -314 -335 -22 -23 -85 -90 -139 -148 -55 -58 -102 -104 -105 -101 -2 3
-6 54 -7 113 -2 167 -14 716 -19 932 -5 191 -7 270 -21 910 -3 173 -8 365 -9
425 -2 61 -4 152 -4 203 l-1 92 -1005 0 -1005 0 0 -3500z"/>
</g>
</svg>
